<?xml version="1.0" encoding="iso-8859-1"?>
<!-- Generator: Adobe Illustrator 19.0.0, SVG Export Plug-In . SVG Version: 6.00 Build 0)  -->
<svg version="1.1" id="Layer_1" xmlns="http://www.w3.org/2000/svg" xmlns:xlink="http://www.w3.org/1999/xlink" x="0px" y="0px"
	 viewBox="0 0 496 496" style="enable-background:new 0 0 496 496;" xml:space="preserve">
<g>
	<g>
		<g>
			<path d="M307.488,128c7.8-7.424,12.512-17.768,12.512-28.928V48h16V0H160v48h16v51.072c0,11.16,4.712,21.512,12.52,28.928H0v336
				h208.808c3.72,18.232,19.872,32,39.192,32s35.48-13.768,39.192-32H496V128H307.488z M176,32V16h144v16H176z M320,248v-51.072
				c0-7.56-2.184-14.752-5.984-20.928H448v240H256V296h80v-48H320z M320,264v16H176v-16H320z M180.576,337.264
				c2.128-0.8,4.392-1.264,6.736-1.264h1.376c5.16,0,10.008,2.008,13.656,5.656l5.656,5.656V384H80v-20.688l23.512-23.512
				C111.128,332.184,121.24,328,132,328s20.872,4.184,28.488,11.8l25.856,25.856l11.312-11.312L180.576,337.264z M188.688,320
				h-1.376c-6.768,0-13.216,1.96-18.808,5.496C158.328,316.784,145.544,312,132,312c-15.032,0-29.168,5.848-39.8,16.488l-12.2,12.2
				V280h80v16h48v29.768C202.304,322.032,195.656,320,188.688,320z M160,264H64v136h160V296h16v120H48V176h133.984
				c-3.8,6.176-5.984,13.368-5.984,20.928V248h-16V264z M304,200h-16v16h16v32H192v-32h80v-16h-80v-3.072
				c0-9.528,5.648-18.168,14.376-21.992L248,156.728l41.616,18.208C298.352,178.768,304,187.4,304,196.928V200z M206.384,121.064
				C197.648,117.232,192,108.6,192,99.072V96h112v3.072c0,9.528-5.648,18.168-14.376,21.992L248,139.272L206.384,121.064z M192,80
				V48h112v32H192z M480,448H272v8c0,13.232-10.768,24-24,24s-24-10.768-24-24v-8H16V144h202.896l9.144,4L200,160.264V160H32v272
				h432V160H296v0.264L267.96,148l9.144-4H480V448z"/>
			<rect x="272" y="320" width="160" height="16"/>
			<rect x="272" y="352" width="160" height="16"/>
			<rect x="416" y="384" width="16" height="16"/>
			<rect x="272" y="384" width="128" height="16"/>
			<path d="M384,288c26.472,0,48-21.528,48-48s-21.528-48-48-48s-48,21.528-48,48S357.528,288,384,288z M384,208
				c17.648,0,32,14.352,32,32s-14.352,32-32,32s-32-14.352-32-32S366.352,208,384,208z"/>
			<rect x="240" y="168" width="16" height="16"/>
			<path d="M392.568,90.528l13.752-8.168c-2.72-4.584-5.648-9.064-8.712-13.312l-12.984,9.36
				C387.416,82.272,390.088,86.352,392.568,90.528z"/>
			<path d="M387.816,56.568c-3.432-4.008-7.088-7.92-10.856-11.616l-11.2,11.424c3.448,3.376,6.776,6.944,9.904,10.6L387.816,56.568
				z"/>
			<path d="M405.16,116.64l14.952-5.672c-1.872-4.952-3.984-9.864-6.272-14.608l-14.408,6.952
				C401.504,107.632,403.44,112.128,405.16,116.64z"/>
			<path d="M365.168,34.32c-4.056-3.36-8.32-6.584-12.672-9.584l-9.096,13.16c3.968,2.752,7.856,5.696,11.56,8.76L365.168,34.32z"/>
			<path d="M130.264,56.336l-11.2-11.424c-3.752,3.672-7.4,7.576-10.848,11.6l12.144,10.424
				C123.504,63.256,126.84,59.696,130.264,56.336z"/>
			<path d="M111.408,78.352l-13-9.344c-3.096,4.312-6.024,8.792-8.704,13.304l13.752,8.168
				C105.904,86.36,108.576,82.28,111.408,78.352z"/>
			<path d="M152.632,37.856l-9.096-13.16c-4.336,2.992-8.592,6.216-12.672,9.576l10.184,12.336
				C144.784,43.544,148.672,40.6,152.632,37.856z"/>
			<path d="M96.592,103.256l-14.408-6.952c-2.288,4.736-4.4,9.648-6.28,14.608l14.968,5.672
				C92.584,112.056,94.504,107.576,96.592,103.256z"/>
		</g>
	</g>
</g>
<g>
</g>
<g>
</g>
<g>
</g>
<g>
</g>
<g>
</g>
<g>
</g>
<g>
</g>
<g>
</g>
<g>
</g>
<g>
</g>
<g>
</g>
<g>
</g>
<g>
</g>
<g>
</g>
<g>
</g>
</svg>
