<?xml version="1.0" encoding="iso-8859-1"?>
<!-- Generator: Adobe Illustrator 19.0.0, SVG Export Plug-In . SVG Version: 6.00 Build 0)  -->
<svg version="1.1" id="Capa_1" xmlns="http://www.w3.org/2000/svg" xmlns:xlink="http://www.w3.org/1999/xlink" x="0px" y="0px"
	 viewBox="0 0 470 470" style="enable-background:new 0 0 470 470;" xml:space="preserve">
<g>
	<path d="M235,257.5c12.406,0,22.5-10.093,22.5-22.5s-10.094-22.5-22.5-22.5s-22.5,10.093-22.5,22.5S222.594,257.5,235,257.5z
		 M235,227.5c4.136,0,7.5,3.364,7.5,7.5s-3.364,7.5-7.5,7.5s-7.5-3.364-7.5-7.5S230.864,227.5,235,227.5z"/>
	<path d="M470,235c0-63.442-40.388-117.626-96.802-138.197C352.627,40.388,298.442,0,235,0C171.557,0,117.373,40.388,96.802,96.803
		C40.388,117.374,0,171.558,0,235s40.388,117.626,96.802,138.197C117.373,429.612,171.557,470,235,470
		c63.442,0,117.627-40.388,138.198-96.803C429.612,352.626,470,298.442,470,235z M235,15c52.951,0,98.713,31.334,119.74,76.43
		c-10.238-2.265-20.871-3.469-31.78-3.469c-32.099,0-62.861,10.514-87.959,29.244c-25.099-18.73-55.861-29.244-87.96-29.244
		c-10.91,0-21.542,1.205-31.78,3.469C136.287,46.334,182.049,15,235,15z M367.04,147.04c0,28.312-8.96,54.569-24.189,76.091
		c-26.876-29.015-65.276-47.21-107.851-47.21s-80.975,18.195-107.851,47.21c-15.229-21.522-24.189-47.779-24.189-76.091
		c0-13.345,1.997-26.231,5.696-38.383c12.152-3.699,25.038-5.697,38.384-5.697c27.586,0,54.072,8.65,76.055,24.137
		c-7.78,7.194-14.842,15.269-21.01,24.155c-2.362,3.403-1.519,8.076,1.885,10.438c3.403,2.363,8.077,1.518,10.438-1.885
		c5.991-8.631,12.922-16.411,20.592-23.257c7.673,6.849,14.606,14.632,20.598,23.268c2.361,3.403,7.033,4.249,10.438,1.886
		c3.403-2.361,4.248-7.034,1.887-10.438c-6.169-8.891-13.235-16.97-21.018-24.167c21.984-15.487,48.469-24.137,76.055-24.137
		c13.345,0,26.232,1.997,38.384,5.696C365.043,120.809,367.04,133.695,367.04,147.04z M361.344,361.343
		c-12.152,3.699-25.038,5.696-38.384,5.696c-27.586,0-54.072-8.65-76.055-24.137c7.781-7.195,14.845-15.273,21.013-24.161
		c2.362-3.403,1.518-8.076-1.885-10.438c-3.404-2.36-8.076-1.518-10.438,1.886c-5.992,8.634-12.924,16.415-20.595,23.262
		c-7.671-6.847-14.603-14.627-20.594-23.26c-2.361-3.401-7.033-4.248-10.438-1.885c-3.402,2.362-4.247,7.035-1.885,10.438
		c6.168,8.887,13.231,16.964,21.011,24.158c-21.983,15.487-48.469,24.137-76.055,24.137c-13.345,0-26.232-1.997-38.384-5.697
		c-3.699-12.152-5.696-25.038-5.696-38.383c0-28.312,8.96-54.569,24.189-76.091c26.876,29.015,65.276,47.21,107.851,47.21
		s80.975-18.195,107.851-47.21c15.229,21.522,24.189,47.779,24.189,76.091C367.04,336.305,365.043,349.191,361.344,361.343z
		 M279.079,235c0,24.305-19.773,44.079-44.079,44.079S190.921,259.305,190.921,235s19.773-44.079,44.079-44.079
		S279.079,210.695,279.079,235z M187.65,270.294c-19.723-7.602-37.174-19.807-51.035-35.294
		c13.86-15.487,31.312-27.691,51.035-35.294c-7.364,9.854-11.729,22.073-11.729,35.294S180.286,260.439,187.65,270.294z
		 M282.35,270.294c7.364-9.854,11.729-22.073,11.729-35.294s-4.365-25.439-11.729-35.294c19.723,7.602,37.174,19.807,51.035,35.294
		C319.524,250.487,302.072,262.691,282.35,270.294z M15,235c0-52.95,31.334-98.711,76.429-119.739
		c-2.265,10.238-3.469,20.87-3.469,31.779c0,32.956,10.899,63.414,29.281,87.96c-18.382,24.546-29.281,55.004-29.281,87.96
		c0,10.909,1.204,21.541,3.469,31.779C46.334,333.711,15,287.95,15,235z M235,455c-52.951,0-98.713-31.334-119.74-76.43
		c10.238,2.265,20.871,3.469,31.78,3.469c32.099,0,62.862-10.514,87.96-29.244c25.099,18.73,55.861,29.244,87.96,29.244
		c10.91,0,21.542-1.205,31.78-3.469C333.713,423.666,287.951,455,235,455z M378.571,354.739c2.264-10.238,3.469-20.87,3.469-31.779
		c0-32.956-10.899-63.414-29.281-87.96c18.382-24.546,29.281-55.004,29.281-87.96c0-10.909-1.205-21.541-3.469-31.779
		C423.667,136.288,455,182.05,455,235S423.667,333.712,378.571,354.739z"/>
</g>
<g>
</g>
<g>
</g>
<g>
</g>
<g>
</g>
<g>
</g>
<g>
</g>
<g>
</g>
<g>
</g>
<g>
</g>
<g>
</g>
<g>
</g>
<g>
</g>
<g>
</g>
<g>
</g>
<g>
</g>
</svg>
